# xmcd CD database file generated by Grip 2.96
# 
# Track frame offsets:
#       150
#       10495
#       24665
#       37935
#       47830
#       58787
#       70227
#       82687
#       92412
#       101485
#       111580
#       122697
#       131300
#       144860
#       157582
#       168260
#       180792
#       190180
#       201790
#       213105
#       223777
#       235985
#       248497
#       260432
#       276015
#       297235
# 
# Disc length: 4266 seconds
# 
# Revision: 0
# Processed by: cddbd v1.4PL0 Copyright (c) Steve Scherf et al.
# Submitted via: Grip 2.96
# 
DISCID=5a10a81a
DTITLE=George "Harmonica" Smith - Blowing The Blues
DYEAR=1900
DGENRE=
TTITLE0=Blowing The Blues
TTITLE1=West Helena Blues
TTITLE2=I Don't Know
TTITLE3=Miss O'Malley's Rally
TTITLE4=All Last Night
TTITLE5=I Want A Woman
TTITLE6=Until You Come Home
TTITLE7=Hot Rolls
TTITLE8=I Must Be Crazy
TTITLE9=Yes Baby
TTITLE10=Loose Skrews
TTITLE11=Rope That Twist
TTITLE12=Sometimes You Win, Sometimes You Lose
TTITLE13=Good Things
TTITLE14=You Can't Undo What's Been Done
TTITLE15=Nobody Knows
TTITLE16=Trap Meat
TTITLE17=Tight Dress
TTITLE18=Times Won't Be Hard Always
TTITLE19=Come On Home
TTITLE20=The Avalon Boogaloo
TTITLE21=As Long As I Live
TTITLE22=Brown Mule
TTITLE23=Summertime
TTITLE24=Teenage Girl
TTITLE25=Teardrops Falling
EXTD=
EXTT0=
EXTT1=
EXTT2=
EXTT3=
EXTT4=
EXTT5=
EXTT6=
EXTT7=
EXTT8=
EXTT9=
EXTT10=
EXTT11=
EXTT12=
EXTT13=
EXTT14=
EXTT15=
EXTT16=
EXTT17=
EXTT18=
EXTT19=
EXTT20=
EXTT21=
EXTT22=
EXTT23=
EXTT24=
EXTT25=
PLAYORDER=
